<svg id="visual" viewBox="0 0 900 600" width="900" height="600" xmlns="http://www.w3.org/2000/svg" xmlns:xlink="http://www.w3.org/1999/xlink" version="1.1"><rect x="0" y="0" width="900" height="600" fill="#FF0066"></rect><g transform="translate(477.55967861077823 300.5740344060184)"><path d="M124.4 -162.8C156.2 -121.5 173.6 -77.6 186.2 -29.5C198.7 18.7 206.3 71.1 191.1 122.6C176 174.1 138.1 224.7 91 235.6C43.9 246.5 -12.4 217.7 -72.4 196.8C-132.4 175.9 -196.1 163 -228.5 123.8C-260.9 84.5 -261.9 19.1 -238.7 -29.8C-215.5 -78.8 -168 -111.2 -124.2 -150.3C-80.4 -189.4 -40.2 -235.2 3.1 -238.9C46.3 -242.5 92.6 -204 124.4 -162.8" fill="#BB004B"></path></g></svg>