<svg width="269" height="335" viewBox="0 0 269 335" fill="none" xmlns="http://www.w3.org/2000/svg">
<rect x="16.8674" y="277.091" width="57.6918" height="19.8518" transform="rotate(-107 16.8674 277.091)" fill="#480CA7" fill-opacity="0.45"/>
<circle cx="43.8755" cy="182.427" r="10.9985" fill="#FF21FB" fill-opacity="0.85"/>
<path d="M252.833 315.089L253.188 304.929L243.635 301.452L253.407 298.65L253.762 288.49L259.447 296.918L269.219 294.116L262.96 302.127L268.645 310.555L259.092 307.078L252.833 315.089Z" fill="#755FFE"/>
<rect x="154.549" y="17.7372" width="19.269" height="29.4575" transform="rotate(-67 154.549 17.7372)" fill="#DCBCFA" fill-opacity="0.65"/>
<circle cx="37.4717" cy="137.6" r="4.59473" fill="#755FFE" fill-opacity="0.45"/>
<circle cx="165.548" cy="265.676" r="10.9985" fill="#BA3E03" fill-opacity="0.65"/>
<path d="M88.3178 324.858L73.5779 328.808L69.6283 314.068L84.3683 310.118L88.3178 324.858Z" fill="#FFED36" fill-opacity="0.45"/>
<path d="M178.61 163.632L179.814 156.582L175.246 151.079L182.296 152.283L187.799 147.715L186.595 154.765L191.163 160.268L184.113 159.064L178.61 163.632Z" fill="#FC9E1C" fill-opacity="0.75"/>
</svg>
