<svg width="196" height="509" viewBox="0 0 196 509" fill="none" xmlns="http://www.w3.org/2000/svg">
<rect width="81.5831" height="32.0633" transform="matrix(0.328297 0.944574 -0.920676 0.390328 140.754 155.417)" fill="#F54721" fill-opacity="0.9"/>
<ellipse cx="46.0472" cy="70.2199" rx="15.0854" ry="16.6611" fill="#03A3F5" fill-opacity="0.35"/>
<path d="M157.253 17.4322L170.39 19.135L180.112 9.22893L178.57 23.7384L187.54 34.4759L174.402 32.773L164.68 42.6791L166.222 28.1696L157.253 17.4322Z" fill="#BA3E03" fill-opacity="0.45"/>
<rect width="30.9227" height="44.5021" transform="matrix(0.98156 -0.191153 0.157655 0.987494 140.754 155.417)" fill="#DCBCFA" fill-opacity="0.75"/>
<path d="M155.498 333.028L130.485 326.14L123.379 298.772L141.287 278.291L166.3 285.179L173.406 312.547L155.498 333.028Z" fill="#9AF5FC" fill-opacity="0.85"/>
<path d="M48.6128 487.421L33.1591 485.627L26.8388 501.305L23.6081 484.518L8.15433 482.724L21.6114 474.143L18.3807 457.356L29.9283 468.84L43.3854 460.259L37.0652 475.937L48.6128 487.421Z" fill="#DCBCFA" fill-opacity="0.35"/>
</svg>
